<svg xmlns="http://www.w3.org/2000/svg" width="55" height="55"><path d="M14 41.53v-.35a1.59 1.59 0 00-3.19-.18l3.19.64v-.11zm11.55-1.95a1.6 1.6 0 00-1.6 1.6v.41l3.18-.6a1.6 1.6 0 00-1.58-1.41zm24.87-4.97a9.93 9.93 0 10-9.93 9.92 9.94 9.94 0 009.93-9.92zm-7.35 6.82a4.66 4.66 0 01-4.61 0 4.68 4.68 0 01-1.89-6.13l4.2-8.5L45 35.3a4.67 4.67 0 01-1.93 6.13z" fill="none"/><path d="M40.49 22.68a11.92 11.92 0 00-10.58 6.46c-2.73-1.95-4-3.26-4-6.43V11.88a1 1 0 10-2 0v10.83c0 4.4 2.24 6.26 5.18 8.32a11.91 11.91 0 00.91 9.29 5.22 5.22 0 01-.87.29l-1.05.19a2.59 2.59 0 00-5.16.38v.5h-.06l-.29.47c-.82 1.3-2.2 2.68-3.6 2.68s-2.72-1.35-3.55-2.62l-.13-.21-.24-.12v-.68a2.59 2.59 0 00-5.16-.37l-1-.2a5 5 0 01-3.91-4.84 3.84 3.84 0 011.62-3.18l1.58-1.1c3.28-2.26 5.86-4.06 5.86-8.8V11.88a1 1 0 00-2 0v10.83c0 3.55-1.53 4.76-5 7.16L5.46 31a5.84 5.84 0 00-2.52 4.81 7 7 0 005.52 6.8l5.51 1c.82 1.16 2.62 3.22 5 3.22s4.25-2.12 5-3.22l5.54-1a6.56 6.56 0 001.63-.61 11.92 11.92 0 109.35-19.31zM10.81 41a1.59 1.59 0 013.18.17v.47zm13.19.59v-.41a1.6 1.6 0 013.13-.18zm6.62-7a9.93 9.93 0 119.92 9.92 9.93 9.93 0 01-9.97-9.9z" fill="#E9005A"/><path d="M44.06 35.74l-3.29-6.68-3.3 6.68a3.67 3.67 0 106.59 0zM40.31 39v-1a1.82 1.82 0 001.82-1.81h1A2.82 2.82 0 0140.31 39z" fill="none"/><path d="M40.77 26.8l-4.2 8.5a4.68 4.68 0 001.89 6.13 4.66 4.66 0 004.61 0A4.67 4.67 0 0045 35.3zM39 40.56a3.68 3.68 0 01-1.48-4.82l3.3-6.68 3.29 6.68A3.67 3.67 0 0139 40.56z" fill="#E9005A"/><path d="M40.31 38v1a2.82 2.82 0 002.82-2.81h-1A1.82 1.82 0 0140.31 38z" fill="#E9005A"/></svg>