<svg xmlns="http://www.w3.org/2000/svg" width="55" height="55"><path d="M21 26.4v2.9a13.22 13.22 0 012.21-1A8.88 8.88 0 0121 26.4zm-5 5.83a6.05 6.05 0 01-5.21-.08 8.16 8.16 0 00-5.61 6.76h8.68a14.42 14.42 0 013.1-6.26 8.2 8.2 0 00-.96-.42zm16.39-4.05A14.32 14.32 0 0135 29.32v-3.86a8.65 8.65 0 01-2.61 2.72zm12.54 3.97a6.08 6.08 0 01-5.22.08c-.25.09-.49.2-.73.31a14.41 14.41 0 013.2 6.37h8.36a8.19 8.19 0 00-5.61-6.76z" fill="none"/><path d="M46.79 30.74a6.14 6.14 0 10-9 .15l-.28.13a17.91 17.91 0 00-1.51-1.1v-6.84a8.43 8.43 0 00.29-2.08 8.6 8.6 0 00-17.19 0 8.48 8.48 0 00.9 3.85v5.06a14.67 14.67 0 00-1.66 1.28.82.82 0 00-.2-.17l-.28-.14a6.15 6.15 0 10-9-.14 10.15 10.15 0 00-5.81 9.17 1 1 0 001 1h9.45c0 .37-.06.74-.06 1.12v1h29.09V42c0-.38 0-.75-.06-1.12h9.13a1 1 0 001-1 10.15 10.15 0 00-5.81-9.14zm-8.7-4.1a4.14 4.14 0 114.14 4.14 4.14 4.14 0 01-4.14-4.14zM27.69 14.4a6.56 6.56 0 014.89 2.19c-.51 1.43-6.86 4.18-11.33 5.81a6.48 6.48 0 01-.15-1.4 6.6 6.6 0 016.59-6.6zm5.54 3a6.5 6.5 0 011.06 3.6 6.13 6.13 0 010 .74l-2.81-2.82a7.42 7.42 0 001.75-1.49zm-2.69 2L34 22.9a6.6 6.6 0 01-5.47 4.63H28c-.18 0-.66 0-1 .05a6.6 6.6 0 01-5.46-4.19 68.12 68.12 0 009-3.95zM28 29.5A12.55 12.55 0 0140.49 41h-25A12.54 12.54 0 0128 29.5zm7-.18a14.32 14.32 0 00-2.63-1.14A8.65 8.65 0 0035 25.46zM21 26.4a8.88 8.88 0 002.21 1.93 13.22 13.22 0 00-2.21 1zm-11.71.24a4.15 4.15 0 114.15 4.14 4.14 4.14 0 01-4.13-4.14zM5.15 38.91a8.16 8.16 0 015.61-6.76 6.05 6.05 0 005.21.08 8.2 8.2 0 011 .42 14.42 14.42 0 00-3.1 6.26zm37 0A14.41 14.41 0 0039 32.54c.24-.11.48-.22.73-.31a6.08 6.08 0 005.22-.08 8.19 8.19 0 015.61 6.76z" fill="#E9005A"/><path d="M34.24 21.73a6.13 6.13 0 000-.74 6.5 6.5 0 00-1.06-3.56 7.42 7.42 0 01-1.8 1.48zM21.1 21a6.48 6.48 0 00.15 1.41c4.47-1.63 10.82-4.38 11.33-5.81A6.58 6.58 0 0021.1 21zm.44 2.36A6.6 6.6 0 0027 27.55c.34 0 .67-.05 1-.05h.53A6.6 6.6 0 0034 22.9l-3.46-3.46a68.12 68.12 0 01-9 3.92zm24.83 3.28a4.14 4.14 0 10-4.14 4.14 4.14 4.14 0 004.14-4.14zm-28.77 0a4.15 4.15 0 10-4.14 4.14 4.14 4.14 0 004.14-4.14zM15.52 41h25a12.52 12.52 0 00-25 0z" fill="none"/></svg>