<svg xmlns="http://www.w3.org/2000/svg" width="86" height="55"><path d="M67.2 29.86a6.81 6.81 0 01-2.71.56 7 7 0 01-2.67-.54A9.56 9.56 0 0055.06 38H74a9.54 9.54 0 00-6.8-8.14z" fill="none"/><path d="M69.24 28.49a6.85 6.85 0 10-9.47 0A11.54 11.54 0 0053 39v1h23.07v-1a11.55 11.55 0 00-6.83-10.51zM55.06 38a9.56 9.56 0 016.76-8.13 7 7 0 002.67.54 6.81 6.81 0 002.71-.56A9.54 9.54 0 0174 38zm4.58-14.44a4.85 4.85 0 114.85 4.85 4.86 4.86 0 01-4.85-4.84z" fill="#E9005A"/><path d="M69.34 23.57a4.85 4.85 0 10-4.85 4.85 4.85 4.85 0 004.85-4.85zM24.2 29.86a6.81 6.81 0 01-2.71.56 7 7 0 01-2.67-.54A9.56 9.56 0 0012.06 38H31a9.54 9.54 0 00-6.8-8.14z" fill="none"/><path d="M26.24 28.49a6.85 6.85 0 10-9.47 0A11.54 11.54 0 0010 39v1h23.07v-1a11.55 11.55 0 00-6.83-10.51zM12.06 38a9.56 9.56 0 016.76-8.13 7 7 0 002.67.54 6.81 6.81 0 002.71-.56A9.54 9.54 0 0131 38zm4.58-14.44a4.85 4.85 0 114.85 4.85 4.86 4.86 0 01-4.85-4.84z" fill="#E9005A"/><path d="M26.34 23.57a4.85 4.85 0 10-4.85 4.85 4.85 4.85 0 004.85-4.85z" fill="none"/><path fill="#E9005A" d="M49.29 29.22h1v1h-1zm-10 0h1v1h-1zm2 0h1v1h-1zm2 0h1v1h-1zm4 0h1v1h-1zm-2 0h1v1h-1zm-8 0h1v1h-1zm-2 0h1v1h-1zm16 0h1v1h-1z"/><path fill="#E9005A" d="M37.6 25.04l-4.68 4.68 4.68 4.68.71-.7-3.97-3.98 3.97-3.97-.71-.71zm12.38 0l-.7.71 3.97 3.97-3.97 3.98.7.7 4.68-4.68-4.68-4.68z"/></svg>