<svg xmlns="http://www.w3.org/2000/svg" width="86" height="55"><path fill="none" d="M13.56 8.13h59v33h-59z"/><path d="M75.1 5.29a.87.87 0 00-.87-.87H12a.87.87 0 00-.87.87v39.56h64zm-1.54 36.84h-61v-35h61zm-24.96 6.5h-11a2.51 2.51 0 01-2.29-1.5H3.1v.64a2.36 2.36 0 002.36 2.36h75.28a2.36 2.36 0 002.36-2.36v-.64H50.89a2.51 2.51 0 01-2.29 1.5z" fill="none"/><path d="M12.56 42.13h61v-35h-61zm1-34h59v33h-59z" fill="#05BF70"/><path d="M77.1 45.13V5.29a2.88 2.88 0 00-2.87-2.87H12a2.88 2.88 0 00-2.9 2.87v39.84h-8v2.64a4.36 4.36 0 004.36 4.36h75.28a4.36 4.36 0 004.36-4.36v-2.64zm-66-39.84a.87.87 0 01.9-.87h62.23a.87.87 0 01.87.87v39.56h-64zm72 42.48a2.36 2.36 0 01-2.36 2.36H5.46a2.36 2.36 0 01-2.36-2.36v-.64h32.21a2.51 2.51 0 002.29 1.5h11a2.51 2.51 0 002.29-1.5H83.1z" fill="#05BF70"/></svg>