<svg xmlns="http://www.w3.org/2000/svg" width="55" height="55"><path d="M17.12 28.24a1 1 0 01-1.42 0 1 1 0 010-1.41l5.38-5.37v-4.32a2.94 2.94 0 00-2.94-2.94A16.08 16.08 0 002.08 30.27V42.2a8 8 0 008 8h3.32a7.69 7.69 0 007.68-7.68V30.05l-.37.2a1 1 0 01-1.17-.16 1 1 0 010-1.41l1.12-1.12h-2.84zM6.74 25.62a14.13 14.13 0 00-1.16 5.64.51.51 0 01-.5.5.5.5 0 01-.5-.5 15 15 0 011.25-6 .5.5 0 11.91.39zm7.42-7.36a13.83 13.83 0 00-4.09 2.67.5.5 0 01-.34.13.49.49 0 01-.37-.16.5.5 0 010-.71 15.28 15.28 0 014.39-2.85.5.5 0 11.39.92zm21.59-4.06a2.94 2.94 0 00-2.94 2.94v4.3l5.4 5.39a1 1 0 11-1.42 1.41l-.71-.7h-2.8l1.24 1.24a1 1 0 01-1.37 1.44l-.32-.17v12.47a7.69 7.69 0 007.68 7.68h3.32a8 8 0 008-8V30.27A16.08 16.08 0 0035.75 14.2zm9 6.7a.48.48 0 01-.36.16.51.51 0 01-.35-.13A13.83 13.83 0 0040 18.26a.5.5 0 11.39-.92 15.28 15.28 0 014.39 2.85.5.5 0 01.01.71zm2.92 4.1a.5.5 0 01.66.26 15.14 15.14 0 011.25 6 .51.51 0 01-.5.5.5.5 0 01-.5-.5 14.14 14.14 0 00-1.17-5.64.49.49 0 01.26-.62z" fill="none"/><path d="M6.48 25a.49.49 0 00-.65.26 15 15 0 00-1.25 6 .5.5 0 00.5.5.51.51 0 00.5-.5 14.13 14.13 0 011.16-5.64.49.49 0 00-.26-.62zm7.29-7.66a15.28 15.28 0 00-4.39 2.85.5.5 0 000 .71.49.49 0 00.37.16.5.5 0 00.34-.13 13.83 13.83 0 014.09-2.67.5.5 0 10-.39-.92zm34.81 13.92a.5.5 0 00.5.5.51.51 0 00.5-.5 15.14 15.14 0 00-1.25-6 .5.5 0 00-.66-.26.49.49 0 00-.26.65 14.14 14.14 0 011.17 5.61zm-8.2-13.92a.5.5 0 10-.39.92 13.83 13.83 0 014.09 2.67.51.51 0 00.35.13.48.48 0 00.36-.16.5.5 0 000-.71 15.28 15.28 0 00-4.41-2.85z" fill="#56657c"/><path d="M30.81 22.29l-2.44-2.45a1 1 0 01-.29-.71V6.2h-2v12.67a1 1 0 01-.3.71l-2.7 2.71-5.26 5.25h2.83l5.6-5.6a1 1 0 011.41 0l5.6 5.6h2.8z" fill="none"/><path fill="none" d="M26.95 24.06l-3.88 3.88v1.45l7.74.07v-1.54l-3.86-3.86z"/><path d="M35.75 12.2a5 5 0 00-4.94 4.94v2.3l-.73-.74V5.2a1 1 0 00-1-1h-4a1 1 0 00-1 1v13.26l-1 1v-2.32a5 5 0 00-4.94-4.94A18.09 18.09 0 00.08 30.27V42.2a10 10 0 0010 10h3.32a9.69 9.69 0 009.68-9.68V27.94L27 24.06l3.85 3.86v14.6a9.69 9.69 0 009.68 9.68h3.32a10 10 0 0010-10V30.27a18.09 18.09 0 00-18.1-18.07zm16.06 30a8 8 0 01-8 8h-3.32a7.69 7.69 0 01-7.68-7.68V30.05l.32.17a1 1 0 001.37-1.44l-1.24-1.24-5.6-5.6a1 1 0 00-1.41 0l-5.6 5.6-1.12 1.12a1 1 0 000 1.41 1 1 0 001.17.16l.37-.2v12.49a7.69 7.69 0 01-7.67 7.68h-3.32a8 8 0 01-8-8V30.27A16.08 16.08 0 0118.14 14.2a2.94 2.94 0 012.94 2.94v4.32l-5.38 5.37a1 1 0 000 1.41 1 1 0 001.42 0l.7-.7 5.26-5.25 2.7-2.71a1 1 0 00.3-.71V6.2h2v12.91a1 1 0 00.29.71l2.44 2.45 5.25 5.25.71.7a1 1 0 001.42-1.41l-5.4-5.39v-4.3a2.94 2.94 0 012.94-2.94 16.08 16.08 0 0116.08 16.09z" fill="#56657c"/></svg>