<svg xmlns="http://www.w3.org/2000/svg" width="55" height="55"><path d="M38.1 31.31l-9-9-4.1 4.04a4.67 4.67 0 01-6.63 0l-1.3-1.29 7.11-7.12a2.27 2.27 0 00-2 .59l-.72.71-8.52-8.83-9.26 9.24 12.61 12.61a3.26 3.26 0 013.11.84 3.22 3.22 0 01.94 2.25 3.24 3.24 0 013.2 3.23 3.18 3.18 0 013.2 3.16 3.27 3.27 0 012.25.95 3.26 3.26 0 01.84 3.11l1 1a1 1 0 001.33 0l.46-.46a.94.94 0 000-1.32l-4.12-4.11 1.42-1.42L34 43.6a.94.94 0 001.33 0l.45-.45a.94.94 0 000-1.33l-4.08-4.11 1.42-1.41 4.11 4.11a.94.94 0 001.32 0L39 40a.94.94 0 000-1.33l-4.1-4.16 1.41-1.41 4.11 4.11a1 1 0 001.33 0l.46-.46a.94.94 0 000-1.32z" fill="none"/><path d="M43 33.34l10.68-10.72-12.09-12.09-7.45 7.75-.53-.53-1.28-1.28a4.7 4.7 0 00-6.58-.07 4.28 4.28 0 00-2-.53 4.2 4.2 0 00-2.19.61l-8.63-8.92L.85 19.65l13.69 13.69-3.41 3.41a3.28 3.28 0 000 4.62 3.22 3.22 0 002.25.94 3.24 3.24 0 003.2 3.2 3.18 3.18 0 001 2.25 3.22 3.22 0 002.25 1 3.22 3.22 0 00.89 2.24 3.28 3.28 0 004.62 0l3.41-3.42.67.67a2.92 2.92 0 004.15 0l.46-.46a2.89 2.89 0 00.84-1.9 3 3 0 001.9-.84l.46-.46a2.89 2.89 0 00.84-1.9 2.9 2.9 0 001.9-.84l.45-.46a2.9 2.9 0 00.85-1.9 2.86 2.86 0 001.89-.84l.46-.45a2.94 2.94 0 000-4.16zM27.08 17.88a2.73 2.73 0 013.74-.09l3.35 3.35 7.45-7.75 9.23 9.23-9.31 9.31-12.47-12.47-5.48 5.48a2.75 2.75 0 01-3.68.11zm-4.94 31.66a1.26 1.26 0 010-1.78l3.65-3.65a1.26 1.26 0 011.79 1.78l-3.66 3.65a1.26 1.26 0 01-1.78 0zm-9.59-11.37l3.65-3.66a1.28 1.28 0 01.89-.36A1.26 1.26 0 0118 36.3L14.33 40a1.26 1.26 0 01-1.78 0 1.24 1.24 0 010-1.83zm3.19 3.2l3.66-3.66a1.27 1.27 0 01.89-.37 1.29 1.29 0 01.89.37 1.26 1.26 0 010 1.78l-3.65 3.66a1.26 1.26 0 01-1.79-1.78zm3.2 3.19l3.65-3.65a1.27 1.27 0 011.79 0 1.26 1.26 0 010 1.78l-3.66 3.66a1.3 1.3 0 01-1.78 0 1.27 1.27 0 010-1.79zm23.27-7.81l-.46.46a1 1 0 01-1.33 0l-4.11-4.11-1.41 1.41 4.1 4.11A.94.94 0 0139 40l-.46.46a.94.94 0 01-1.32 0l-4.1-4.16-1.42 1.41 4.11 4.11a.94.94 0 010 1.33l-.45.45a.94.94 0 01-1.33 0l-4.11-4.11-1.42 1.42L32.62 45a.94.94 0 010 1.32l-.46.46a1 1 0 01-1.33 0l-1-1a3.26 3.26 0 00-.83-3.09 3.27 3.27 0 00-2.25-.95 3.18 3.18 0 00-3.2-3.16 3.24 3.24 0 00-3.2-3.23 3.22 3.22 0 00-.94-2.25 3.26 3.26 0 00-3.11-.84L3.68 19.65l9.23-9.24 8.52 8.83.72-.71a2.27 2.27 0 012-.59l-7.11 7.12 1.3 1.29a4.67 4.67 0 006.63 0l4.06-4.06 9 9 4.11 4.12a.94.94 0 01.07 1.34z" fill="#56657c"/><path d="M20.72 46.35l3.66-3.66a1.26 1.26 0 000-1.78 1.27 1.27 0 00-1.79 0l-3.65 3.65a1.27 1.27 0 000 1.79 1.3 1.3 0 001.78 0zm-3.19-3.2l3.65-3.66a1.26 1.26 0 000-1.78 1.29 1.29 0 00-.89-.37 1.27 1.27 0 00-.89.37l-3.66 3.66a1.26 1.26 0 001.79 1.78zM14.33 40L18 36.3a1.26 1.26 0 00-1.78-1.79l-3.65 3.66a1.24 1.24 0 000 1.78 1.26 1.26 0 001.76.05zm13.25 5.89a1.26 1.26 0 00-1.79-1.78l-3.65 3.65a1.26 1.26 0 001.78 1.78zm-7.67-20.84a2.75 2.75 0 003.68-.11l5.48-5.48 12.47 12.47 9.31-9.31-9.23-9.23-7.45 7.75-3.35-3.35a2.73 2.73 0 00-3.74.09zm23.7-.05l.71.71-3 3-.71-.71z" fill="none"/><path fill="#56657c" d="M40.609 27.96l2.998-2.999.707.707-2.998 2.998z"/></svg>