<svg xmlns="http://www.w3.org/2000/svg" width="55" height="55"><path d="M16.53 18h-.11a2.21 2.21 0 01-1.85-2.5A1.84 1.84 0 0116 14a2 2 0 012 .66l1.24.18 2.85-2.75c.59-.48 3.38-2.73 4-3l.84-.39-.13.92c-.14.93.92 1.8 1.83 2.36a18.54 18.54 0 007.87 2.4 14.47 14.47 0 00-.59-5.9c-1.64-4.52-6.95-5.1-9.43-4.41-.9.26-1.35.65-1.32.82l.33 1.6L23.88 6a6.54 6.54 0 00-5.61.55c-2.75 1.87-3.6 6.16-3.86 8.55a22.85 22.85 0 00.22 6.18zm19.01-2.7l-8.85 3 2.42 3.27-5.39-.8a.5.5 0 01-.42-.57.51.51 0 01.57-.42h.12l.29-.68-8.81 3 12.17 3.57a10.81 10.81 0 005.88-.08c.24-.57.65-1.61 1.1-2.93l-4.32-.19 3.7-3.28a.49.49 0 01.7 0 .5.5 0 010 .71l-1.87 1.71 2.1.09H35a36.19 36.19 0 001.43-6.4 8.17 8.17 0 01-.89 0zm14.19 3.88A1.59 1.59 0 0047.3 19l-.76.59L50 23l.72-.56c.41-.34.87-.72.88-.95s0-.55-1-1.54z" fill="none"/><path d="M52 18.57l-.81-.81a3.56 3.56 0 00-5.06-.32l-1 .74-.07-.07-8.93 6.38c1.41-3.84 3.58-11.32 1.63-16.71s-8.13-6.7-11.86-5.65a3.78 3.78 0 00-2.53 1.73 8.06 8.06 0 00-6.22 1.06c-3.42 2.32-4.43 7.26-4.73 10a24.79 24.79 0 00.21 6.59c-3.7-.35-5.85 1.86-6.29 4.16a5.15 5.15 0 001.09 4.21l1.23 6.52a114.08 114.08 0 011.64 12.37l.42 5.5h26.12l-.07-1.07a116 116 0 00-2.32-16.4 25.4 25.4 0 003.81-1.95l.7-.41 4.25-3.54 8.48-6.67L52 24a3.46 3.46 0 001.62-2.4c0-.91-.52-1.88-1.62-3.03zM37.24 33.13c-2.65 1.56-4.75 2.78-7.55 2.12l-18.07-5.14C8.91 29.46 8 27.6 8.31 26.05a3.34 3.34 0 013.57-2.58 7 7 0 01.89.06l.79.15 13.57 4a12.66 12.66 0 0010.05-1.47l7.65-5.47 3.39 3.4-10.34 8.62zM12.57 52.27l-.28-3.65A115.64 115.64 0 0010.63 36l-.84-4.42a9 9 0 001.3.43l18.09 5.14a8.11 8.11 0 003.33.14 112 112 0 012.18 15zm22.36-30.52h-.07l-2.1-.09 1.87-1.71a.5.5 0 000-.71.49.49 0 00-.7 0l-3.63 3.29 4.32.19c-.45 1.32-.86 2.36-1.1 2.93a10.81 10.81 0 01-5.88.08l-12.17-3.57-.23.08 2.9-5-1.57-.24a1.23 1.23 0 01-.79-.47 1.21 1.21 0 01-.22-.91.83.83 0 01.65-.67 1 1 0 011 .36l.19.26 2.13.31 3.18-3.06c1-.79 2.3-1.84 3.1-2.43.3 1 1.3 2 2.95 2.83a20.56 20.56 0 006.75 2.07 8.17 8.17 0 00.82 0 36.19 36.19 0 01-1.4 6.46zm15.76.72L50 23l-3.43-3.42.73-.58a1.59 1.59 0 012.43.16l.8.8c1 1 1 1.43 1 1.54s-.43.63-.84.97zm-36.28-7.34c.26-2.39 1.11-6.68 3.86-8.55A6.54 6.54 0 0123.88 6l1.57.44-.33-1.6c0-.17.42-.56 1.32-.82 2.48-.69 7.79-.11 9.43 4.41a14.47 14.47 0 01.59 5.9A18.54 18.54 0 0128.59 12c-.91-.56-2-1.43-1.83-2.36l.13-.92-.84.39c-.6.28-3.39 2.53-4 3l-2.85 2.75-1.2-.21a2 2 0 00-2-.65 1.84 1.84 0 00-1.41 1.51A2.21 2.21 0 0016.42 18h.11l-1.9 3.3a22.85 22.85 0 01-.22-6.17z" fill="#05BF70"/><path d="M31.23 37.43a8.89 8.89 0 01-2.05-.25L11.09 32a9 9 0 01-1.3-.43l.84 4.43a115.64 115.64 0 011.66 12.59l.28 3.65h22.12a112 112 0 00-2.18-15 8.83 8.83 0 01-1.28.19zm16.99-13.31l-3.39-3.4-7.65 5.47a12.66 12.66 0 01-10 1.47l-13.57-4-.79-.15a7 7 0 00-.89-.06 3.34 3.34 0 00-3.57 2.58c-.3 1.55.6 3.41 3.27 4.05l18.07 5.14c2.8.66 4.9-.56 7.55-2.12l.64-.37zM24 19.83l2.88.43-2.14-2.89a.5.5 0 11.81-.59l1.15 1.55 8.85-3a20.56 20.56 0 01-6.75-2.07c-1.65-.87-2.65-1.83-2.95-2.83-.85.57-2.15 1.57-3.11 2.4l-3.18 3.06-2.13-.31-.19-.26a1 1 0 00-1-.36.83.83 0 00-.65.67 1.21 1.21 0 00.22.91 1.23 1.23 0 00.79.47l1.57.23-2.9 5 .23-.08 8.81-3z" fill="none"/><path d="M24.84 16.67a.51.51 0 00-.11.7l2.14 2.89-2.87-.43h-.12a.51.51 0 00-.57.42.5.5 0 00.42.57l5.39.8-2.42-3.27-1.15-1.55a.51.51 0 00-.71-.13z" fill="#05BF70"/></svg>