<svg xmlns="http://www.w3.org/2000/svg" width="55" height="55"><path d="M45.34 41.22a1.06 1.06 0 00-1.05 1.21 1.09 1.09 0 00.42.69 1.06 1.06 0 10.63-1.9zm-2.47 5.65a1.17 1.17 0 00-.67-.22H42a1.14 1.14 0 00-.5 2.05 1.14 1.14 0 001.35-1.84zm-2.34-3.98a.51.51 0 00-.19-.32.48.48 0 00-.29-.09H40a.51.51 0 00-.32.19.57.57 0 00-.09.36.48.48 0 00.2.32.5.5 0 00.36.09.51.51 0 00.31-.19.48.48 0 00.07-.36zm8.91 2.46a.65.65 0 00.42-.26.65.65 0 00-.13-.9.63.63 0 00-.39-.13.65.65 0 00-.34 1.17.67.67 0 00.44.12zM50 48a1.27 1.27 0 00-.77-.25H49a1.31 1.31 0 00-.58 2.34 1.31 1.31 0 001.83-.28A1.32 1.32 0 0050 48zm-21.12-3.39a10.78 10.78 0 01-7.18-2.74l-7.83-6.95h-2.1a7.29 7.29 0 00-7.31 7.24v5.29l25.54.21.84-3.23a10.64 10.64 0 01-1.96.18z" fill="none"/><ellipse cx="27.3" cy="35.31" rx="2.7" ry="2.2" fill="none"/><path d="M32.43 19.43c-2.28-1.21-3.61-2.53-3.9-3.88-1.07.76-3 2.32-4.32 3.36l-4.17 4-2.67-.4-.21-.28a1.48 1.48 0 00-1.54-.54 1.26 1.26 0 00-1 1 1.74 1.74 0 00.38 1.36 1.7 1.7 0 001.15.69L18 25l-4.1 7.08-.29-.17V32L23 40.37a8.76 8.76 0 0011.83-.13A21.88 21.88 0 0040.45 32h-.1l-5.59-.24 4.55-4.17a.5.5 0 11.68.73l-2.78 2.54 3.19.14a.5.5 0 01.33.16c.07-.19.14-.38.2-.57a47.24 47.24 0 001.81-8.39c-2.54.12-7.3-1.2-10.31-2.77zm-5.23 4.84a.5.5 0 01.7.1l4.51 6.09-6.76-1a.5.5 0 01-.42-.57.51.51 0 01.57-.42l4.37.66L27.1 25a.5.5 0 01.1-.73zm.1 14.24a3.48 3.48 0 01-3.7-3.2 3.48 3.48 0 013.7-3.2 3.47 3.47 0 013.7 3.2 3.47 3.47 0 01-3.7 3.2z" fill="none"/><path d="M13.35 31l3-5.18-.35-.09a2.69 2.69 0 01-1.8-1.08 2.71 2.71 0 01-.51-2 2.25 2.25 0 011.73-1.87 2.47 2.47 0 012.54.86l1.78.27 3.85-3.71c.48-.39 4.43-3.59 5.23-4l.84-.39-.13.92c-.24 1.62 2 3.08 3.41 3.81a24.51 24.51 0 009.94 2.69 19.5 19.5 0 00-.79-8.11c-2.24-6.19-9.51-7-12.91-6-1.27.35-2.08.95-2 1.46l.33 1.6-1.59-.48c-3.1-.86-5.69-.6-7.71.77C14.45 13 13.3 18.83 13 22.06a30.43 30.43 0 00.35 8.94z" fill="none"/><path d="M43.93 12.44C41.45 5.58 33.44 3.8 28.6 5.15c-1.9.53-2.88 1.43-3.26 2.36a10.39 10.39 0 00-8.25 1.31c-4.43 3-5.74 9.45-6.13 13a31.21 31.21 0 00.76 11v.12a9.28 9.28 0 00-9.29 9.24v7.28l29.07.23 1.53-5.86v-.07a11 11 0 003.14-2 23.84 23.84 0 006.62-10.53c1.69-5.43 3.21-13.04 1.14-18.79zm-3.2 18.73a.5.5 0 00-.33-.17l-3.19-.14L40 28.33a.5.5 0 10-.68-.73l-4.55 4.17 5.59.24h.1a21.88 21.88 0 01-5.59 8.24 8.76 8.76 0 01-11.87.12L13.57 32v-.05l.29.17L18 25l-1.84-.28a1.7 1.7 0 01-1.16-.67 1.74 1.74 0 01-.32-1.32 1.26 1.26 0 011-1 1.48 1.48 0 011.54.54l.21.28 2.67.4 4.17-4c1.28-1 3.25-2.6 4.32-3.36.29 1.35 1.62 2.67 3.9 3.88 3 1.58 7.77 2.89 10.31 2.78a47.24 47.24 0 01-1.81 8.39c-.12.15-.19.36-.26.53zM4.46 47.45v-5.29a7.29 7.29 0 017.31-7.24h2.1l7.83 6.95a10.78 10.78 0 007.18 2.74 10.64 10.64 0 001.95-.18L30 47.66zm13.75-37c2-1.37 4.61-1.63 7.71-.77l1.57.44-.33-1.6c-.1-.51.71-1.11 2-1.46 3.4-1 10.67-.15 12.91 6a19.5 19.5 0 01.79 8.11 24.51 24.51 0 01-9.94-2.69c-1.38-.73-3.65-2.19-3.41-3.81l.13-.92-.84.39c-.8.37-4.75 3.57-5.23 4l-3.87 3.73-1.78-.27a2.47 2.47 0 00-2.54-.86 2.25 2.25 0 00-1.73 1.87 2.71 2.71 0 00.51 2A2.69 2.69 0 0016 25.73l.39.06-3 5.18a30.43 30.43 0 01-.4-8.91c.31-3.23 1.46-9.06 5.22-11.59z" fill="#56657c"/><path d="M30.17 29.12l-4.37-.66a.51.51 0 00-.57.42.5.5 0 00.42.57l6.76 1-4.51-6.08a.5.5 0 00-.7-.1.5.5 0 00-.1.7zm-2.87 2.99a3.48 3.48 0 00-3.7 3.2 3.48 3.48 0 003.7 3.2 3.47 3.47 0 003.7-3.2 3.47 3.47 0 00-3.7-3.2zm0 5.4a2.49 2.49 0 01-2.7-2.2 2.49 2.49 0 012.7-2.2 2.48 2.48 0 012.7 2.2 2.48 2.48 0 01-2.7 2.2zM47.37 42a2.06 2.06 0 00-.81-1.35 2.07 2.07 0 00-2.88.44 2 2 0 00-.37 1.53 2 2 0 002 1.75 1.73 1.73 0 00.32 0 2.06 2.06 0 001.37-.88 2 2 0 00.37-1.49zm-1.18.94a1.06 1.06 0 01-1.48.22 1.09 1.09 0 01-.42-.69 1.06 1.06 0 011.05-1.21 1 1 0 01.63.2 1.06 1.06 0 01.22 1.44zm5.27 5.78a2.32 2.32 0 00-2.62-1.93 2.3 2.3 0 00-1.93 2.63 2.29 2.29 0 00.91 1.5 2.24 2.24 0 001.36.45h.35a2.3 2.3 0 001.47-.94 2.22 2.22 0 00.46-1.71zm-1.22 1.12a1.31 1.31 0 01-1.83.28 1.31 1.31 0 01.59-2.34h.2a1.27 1.27 0 01.8.22 1.32 1.32 0 01.28 1.82zm-6.78-3.77a2.15 2.15 0 00-3 .45 2.14 2.14 0 00.46 3 2.12 2.12 0 001.26.42 2.14 2.14 0 001.27-3.86zm-.35 2.39a1.14 1.14 0 11-1.83-1.35 1.15 1.15 0 01.74-.45h.18a1.17 1.17 0 01.67.22 1.14 1.14 0 01.24 1.58zM48.37 46a1.61 1.61 0 001 .32h.25a1.65 1.65 0 001.08-.65 1.65 1.65 0 10-2.65-2 1.66 1.66 0 00.32 2.33zm.45-1.71a.64.64 0 01.52-.27.63.63 0 01.39.13.65.65 0 01.13.9.65.65 0 01-.42.26.67.67 0 01-.48-.12.64.64 0 01-.14-.86zm-7.57-.45a1.49 1.49 0 00-1.42-2.35 1.46 1.46 0 00-1 .59 1.49 1.49 0 00.31 2.07 1.5 1.5 0 00.88.29.93.93 0 00.23 0 1.44 1.44 0 001-.6zm-1.48-.49a.48.48 0 01-.2-.32.57.57 0 01.09-.36.51.51 0 01.32-.19h.07a.48.48 0 01.29.09.51.51 0 01.19.32.48.48 0 01-.09.36.51.51 0 01-.31.19.5.5 0 01-.36-.09z" fill="#56657c"/></svg>