<svg xmlns="http://www.w3.org/2000/svg" width="55" height="55"><path d="M17.28 16.2a1.63 1.63 0 00-1.16.48 1.65 1.65 0 000 2.33 1.68 1.68 0 002.32 0 1.65 1.65 0 000-2.33 1.63 1.63 0 00-1.16-.48zm5.11 4.44a.79.79 0 00-1.13 0l-1.19 1.18a.81.81 0 000 1.14l8.26 8.26a.82.82 0 001.13 0L30.65 30a.81.81 0 000-1.14zm-7.18-10.52l-1.89-1.89a1.55 1.55 0 00-2.18 0L7.66 11.7a1.55 1.55 0 000 2.18l1.89 1.89z" fill="none"/><path d="M40.76 39.71a10.84 10.84 0 01-2.88-5.14L37.5 33a3 3 0 00-.8-1.43L15.91 10.82l-5.65 5.66 20.79 20.79a3 3 0 001.42.8l1.54.37a10.89 10.89 0 015.13 2.88l2.23 2.23 1.31-1.31.71.71-1.31 1.31 2.17 2.17a1.14 1.14 0 001.62-1.61zm-25.35-20a2.62 2.62 0 010-3.73 2.71 2.71 0 013.74 0 2.64 2.64 0 11-3.74 3.73zm16 11l-1.19 1.18a1.8 1.8 0 01-2.55 0l-8.26-8.25a1.82 1.82 0 010-2.56l1.19-1.18a1.79 1.79 0 012.55 0l8.26 8.25a1.82 1.82 0 01-.05 2.59z" fill="none"/><path d="M47.28 43.4l-5.11-5.11a8.84 8.84 0 01-2.35-4.19l-.37-1.53a5 5 0 00-1.33-2.37L14.73 6.81a3.63 3.63 0 00-5 0l-3.48 3.48a3.55 3.55 0 000 5l23.38 23.39A5 5 0 0032 40l1.54.37a9 9 0 014.19 2.36l5.11 5.11a3.16 3.16 0 004.44 0 3.16 3.16 0 00.92-2.23 3.12 3.12 0 00-.92-2.21zM7.66 11.7l3.48-3.47a1.55 1.55 0 012.18 0l1.89 1.89-5.66 5.65-1.89-1.89a1.55 1.55 0 010-2.18zm38.21 34.73a1.14 1.14 0 01-1.62 0l-2.17-2.17L43.39 43l-.71-.71-1.31 1.31-2.23-2.23A10.89 10.89 0 0034 38.44l-1.54-.37a3 3 0 01-1.42-.8L10.26 16.48l5.65-5.66L36.7 31.61a3 3 0 01.8 1.39l.38 1.53a10.84 10.84 0 002.88 5.14l5.11 5.11a1.15 1.15 0 010 1.61z" fill="#56657c"/><path d="M19.15 16a2.71 2.71 0 00-3.74 0 2.65 2.65 0 001.87 4.51A2.65 2.65 0 0019.15 16zm-.71 3a1.68 1.68 0 01-2.32 0 1.65 1.65 0 010-2.33 1.64 1.64 0 012.32 0 1.65 1.65 0 010 2.33zm4.66.93a1.79 1.79 0 00-2.55 0l-1.19 1.18a1.82 1.82 0 000 2.56l8.26 8.25a1.8 1.8 0 002.55 0l1.19-1.18a1.82 1.82 0 000-2.56zM30.65 30l-1.19 1.19a.82.82 0 01-1.13 0L20.07 23a.81.81 0 010-1.14l1.19-1.18a.79.79 0 011.13 0l8.26 8.25a.81.81 0 010 1.07z" fill="#56657c"/></svg>