<svg xmlns="http://www.w3.org/2000/svg" width="55" height="55"><path d="M50.66 29.07l-7.95-7.57h-3.88l-.92 4.35h4a.38.38 0 01.38.38.37.37 0 01-.38.37h-28.8a.37.37 0 01-.37-.37.38.38 0 01.37-.38h3.35l-1.33-4.35h-3.85L3.6 29.07zm-48.49 2h50v14.17h-50z" fill="none"/><path d="M43.51 19.5h-4.25l2.62-12.37-2.16.67a66.59 66.59 0 01-26.51 2.61l-1.49-.15 2.81 9.24h-4.07L.17 29.65v17.59h54v-17.6zM39.22 10l-3 14.25H18.07L14.5 12.54A68.36 68.36 0 0039.22 10zM11.28 21.5h3.85l1.33 4.35h-3.35a.38.38 0 00-.37.38.37.37 0 00.37.37h28.81a.37.37 0 00.38-.37.38.38 0 00-.38-.38h-4l.92-4.35h3.88l7.95 7.57H3.6zM2.17 45.24V31.07h50v14.17z" fill="#56657c"/><path d="M18.07 24.28h18.12l3-14.25a68.36 68.36 0 01-24.69 2.51z" fill="none"/></svg>