<svg xmlns="http://www.w3.org/2000/svg" width="55" height="55"><path d="M47.12 36l-4.58-2.36a15.67 15.67 0 00.88-12.44l3.66-1.52a.5.5 0 00.27-.66.51.51 0 00-.65-.27l-3.63 1.51a15.88 15.88 0 00-2.85-4.48l4.78-4.7a.5.5 0 00-.71-.71l-4.71 4.71A16 16 0 0035 12l1.3-3.21a.49.49 0 00-.3-.65.5.5 0 00-.65.28l-1.29 3.17A15.61 15.61 0 0023 11.48l-1.15-3a.51.51 0 00-.65-.29.5.5 0 00-.29.65l1.16 3a16 16 0 00-7.78 7.24l-3.7-1.92a.51.51 0 00-.68.22.49.49 0 00.22.67L13.88 20a15.81 15.81 0 00-.18 12.5l-4 1.65a.52.52 0 00-.27.66.5.5 0 00.47.3h.19l4-1.67a15.8 15.8 0 002.93 4.16l-5.2 5.21a.5.5 0 00.7.71l5.23-5.23A16 16 0 0022.13 41l-1.63 4a.5.5 0 00.28.65.58.58 0 00.18 0 .51.51 0 00.47-.32l1.64-4a15.59 15.59 0 0010.38.1l1.64 4.3a.51.51 0 00.47.32.57.57 0 00.18 0 .5.5 0 00.29-.65l-1.64-4.28a16 16 0 007.67-6.61l4.6 2.38a.59.59 0 00.23 0 .5.5 0 00.23-.94zM14.5 26.42a13.88 13.88 0 015.07-10.72 4.85 4.85 0 007.26-3.08 13.64 13.64 0 011.57-.1 13.91 13.91 0 11-13.9 13.9zm6-11.39a13.69 13.69 0 015.27-2.24 3.86 3.86 0 01-3.65 2.62 3.81 3.81 0 01-1.66-.41z" fill="#56657c"/><path d="M25.73 12.79A13.69 13.69 0 0020.46 15a3.81 3.81 0 001.62.38 3.86 3.86 0 003.65-2.59z" fill="none"/><circle cx="19.64" cy="27.21" r="1.94" fill="none"/><circle cx="29.96" cy="33.41" r="3.26" fill="none"/><path d="M33.47 27.54a4.37 4.37 0 10-4.38-4.37 4.37 4.37 0 004.38 4.37z" fill="none"/><path d="M28.4 40.33a13.91 13.91 0 100-27.81 13.64 13.64 0 00-1.57.1 4.85 4.85 0 01-7.26 3.08 13.9 13.9 0 008.83 24.63zm1.6-2.66a4.27 4.27 0 114.26-4.26A4.27 4.27 0 0130 37.67zm3.47-19.87a5.37 5.37 0 11-5.38 5.37 5.38 5.38 0 015.38-5.37zm-16.76 9.41a2.94 2.94 0 112.93 2.93 2.94 2.94 0 01-2.93-2.93z" fill="none"/><path d="M22.58 27.21a2.94 2.94 0 10-2.94 2.93 2.94 2.94 0 002.94-2.93zm-4.87 0a1.94 1.94 0 111.93 1.93 1.94 1.94 0 01-1.93-1.93zM30 29.14a4.27 4.27 0 104.26 4.27A4.28 4.28 0 0030 29.14zm0 7.53a3.27 3.27 0 113.26-3.26A3.27 3.27 0 0130 36.67zm3.47-8.13a5.37 5.37 0 10-5.38-5.37 5.38 5.38 0 005.38 5.37zm0-9.74a4.37 4.37 0 11-4.38 4.37 4.37 4.37 0 014.38-4.37z" fill="#56657c"/></svg>