<svg xmlns="http://www.w3.org/2000/svg" width="55" height="55"><path d="M44.54 32.59a1.18 1.18 0 00-1.18-1.18H32.05a14.91 14.91 0 011.69 4.14h7.85a3 3 0 001.9-.69 3 3 0 001.05-2.27z" fill="none"/><circle cx="44.55" cy="49.27" r="3.21" fill="none"/><path d="M51.12 43v-1H45l-.86-5.12a5.23 5.23 0 00.68-.48 4.93 4.93 0 001.76-3.79 3.19 3.19 0 00-3.18-3.18H30.63a15.15 15.15 0 00-5.23-4l-.53-2.36h6.54a4.93 4.93 0 001.91-.35c.67-.28 1.06-.69 1.06-1.13s-.73-.82-1.64-.82h-8.38L20.65 4.1A3.35 3.35 0 0019.17 2a3.42 3.42 0 00-2.55-.45l-.52.12a3.36 3.36 0 00-2.56 4L14 7.86h-3.9v1h4.14l3.41 15.32A14.94 14.94 0 1034.17 39a14.72 14.72 0 00-.08-1.49h8.09l1.29 7.71a4.21 4.21 0 102 0L45.13 43zm-18.95-4a12.95 12.95 0 11-13-12.95 13 13 0 0113 12.95zM15.67 4.22a1.38 1.38 0 01.86-.61l.53-.11a1 1 0 01.3 0 1.36 1.36 0 01.73.22 1.33 1.33 0 01.6.86l3.62 16.24h-2.26v2.3h2.77l.35 1.56a14.35 14.35 0 00-3.48-.52l-4.2-18.91a1.33 1.33 0 01.18-1.03zm18.07 31.33a14.91 14.91 0 00-1.69-4.14h11.31a1.18 1.18 0 011.18 1.18 3 3 0 01-1 2.27 3 3 0 01-1.9.69zm14 13.72a3.22 3.22 0 11-3.21-3.21 3.21 3.21 0 013.23 3.21z" fill="#56657c"/><path d="M23.17 24.64l-.35-1.56h-2.77v-2.3h2.26L18.69 4.54a1.33 1.33 0 00-.6-.86 1.36 1.36 0 00-.73-.22 1 1 0 00-.3 0l-.53.11a1.38 1.38 0 00-.86.61 1.33 1.33 0 00-.18 1l4.2 18.87a14.35 14.35 0 013.48.59zm-3.95 1.45a12.95 12.95 0 1013 13 13 13 0 00-13-13zm0 7.84a5.11 5.11 0 11-5.1 5.07 5.11 5.11 0 015.1-5.07zm0 17.23A12.14 12.14 0 017.1 39h1a11.12 11.12 0 0022.24 0h1a12.13 12.13 0 01-12.12 12.16z" fill="none"/><path d="M19.22 43.14a4.11 4.11 0 10-4.1-4.1 4.11 4.11 0 004.1 4.1z" fill="none"/><path d="M19.22 50.16A11.13 11.13 0 018.1 39h-1a12.12 12.12 0 0024.24 0h-1a11.13 11.13 0 01-11.12 11.16z" fill="#56657c"/><path d="M19.22 44.14a5.11 5.11 0 10-5.1-5.1 5.11 5.11 0 005.1 5.1zm0-9.21a4.11 4.11 0 11-4.1 4.07 4.12 4.12 0 014.1-4.07z" fill="#56657c"/></svg>