<svg xmlns="http://www.w3.org/2000/svg" width="55" height="55"><path d="M34.51 24v-1.81a3.37 3.37 0 00-2.33 3.26l.15 10.09-11.16-10.72-.46-.45-.56-.55-4.69-4.61a1.18 1.18 0 00-1.71 1.62l2.33 2.3 8.15 7.93-1.4 1.44-4.68-4.57-3.5-3.46-2.2-2.14c-.05-.06-.09-.12-.14-.17l-2-2a1 1 0 00-.84-.33 1.15 1.15 0 00-.83.36 1.22 1.22 0 00-.34.85 1.24 1.24 0 00.36.83l12.51 12.34-1.4 1.43-2.14-2.1-.06.06-8.21-8.1a1.09 1.09 0 00-.84-.33 1.22 1.22 0 00-.84.36 1.17 1.17 0 00-.33.85 1.15 1.15 0 00.36.83l3.57 3.5 6.84 6.64-1.39 1.44L12 34.23l-2.1-2.07-2.17-2.1a1.22 1.22 0 00-.84-.34 1.24 1.24 0 00-.84.36 1.17 1.17 0 00-.33.85 1.13 1.13 0 00.36.83l3.68 3.6L25 50a8.55 8.55 0 0012-.15c2.16-2.22.62-9-.73-15A57.93 57.93 0 0134.51 24z" fill="none"/><path d="M34.1 17.21a59.54 59.54 0 01-8.93-6.39l-1.3-1.26a3.38 3.38 0 00.66 3.95l7.23 7-11.82.3L22.12 23l8.11 7.79-.08-5.3a5.38 5.38 0 015.3-5.49h1l.06 4a57.69 57.69 0 001.75 10.42c.11.52.23 1 .35 1.56 4-.44 6.71-3.87 6.64-8.61-.05-3.15-5.95-6.87-11.15-10.16z" fill="none"/><path d="M47.25 27.29c-.06-4.18-5.9-7.87-12.08-11.77a59.39 59.39 0 01-8.61-6.13l-2.84-2.76-.7.72a5.38 5.38 0 00.12 7.6l3.86 3.7-9 .22-1.1-1.08a3.2 3.2 0 00-4.51.07 3 3 0 00-.63 1 3.3 3.3 0 00-2.27-.9 3.21 3.21 0 00-3.14 3.24 3.18 3.18 0 001 2.23v.05a3.12 3.12 0 00-1 .71 3.18 3.18 0 00-.9 2.27 3.23 3.23 0 00.43 1.53 3.19 3.19 0 00-1.1 5.26L8 36.39l.44.42.59.58H9l14.59 14.08a10.54 10.54 0 0014.88-.23c2.43-2.5 1.78-7.6.56-13.35 4.91-.65 8.3-4.89 8.22-10.6zM37 49.85A8.55 8.55 0 0125 50L9.76 35.36l-3.68-3.6a1.13 1.13 0 01-.36-.83 1.17 1.17 0 01.33-.85 1.24 1.24 0 01.84-.36 1.22 1.22 0 01.84.34l2.17 2.1 2.1 2.09 4.7 4.56 1.39-1.44-6.84-6.64-3.57-3.5a1.15 1.15 0 01-.36-.83 1.17 1.17 0 01.33-.85 1.22 1.22 0 01.84-.36 1.09 1.09 0 01.84.33l8.21 8.1.06-.06 2.14 2.1 1.4-1.43L8.63 22a1.24 1.24 0 01-.36-.83 1.22 1.22 0 01.34-.85 1.15 1.15 0 01.83-.36 1 1 0 01.84.33l2 2c.05.05.09.11.14.17l2.2 2.14 3.49 3.4 4.68 4.57 1.4-1.44-8.15-7.93-2.33-2.3a1.18 1.18 0 011.71-1.62l4.69 4.61.56.55.46.45L32.3 35.52l-.15-10.09a3.37 3.37 0 012.33-3.26v1.81a57.93 57.93 0 001.8 10.83c1.38 6.01 2.92 12.82.72 15.04zm1.57-13.92c-.12-.52-.24-1-.35-1.56A57.69 57.69 0 0136.51 24l-.06-4h-1a5.38 5.38 0 00-5.3 5.45l.08 5.3L22.12 23l-2.18-2.15 11.82-.3-7.23-7a3.38 3.38 0 01-.66-3.95l1.3 1.26a59.54 59.54 0 008.93 6.39c5.2 3.29 11.1 7 11.15 10.11.07 4.7-2.63 8.13-6.64 8.57z" fill="#05BF70"/><path d="M14 14.12a3.26 3.26 0 004.53-4.28l-2.91-5.92-2.92 5.92a3.27 3.27 0 001.3 4.28zm1.14-2.2A1.86 1.86 0 0017 10.06h1a2.86 2.86 0 01-2.86 2.86z" fill="none"/><path d="M13 15.86A5.26 5.26 0 0020.34 9L15.62-.6 10.91 9A5.27 5.27 0 0013 15.86zm-.33-6l2.92-5.92 2.93 5.92a3.26 3.26 0 11-5.85 0z" fill="#05BF70"/><path d="M18 10.06h-1a1.86 1.86 0 01-1.86 1.86v1A2.86 2.86 0 0018 10.06z" fill="#05BF70"/></svg>