<svg width="170" height="57" xmlns="http://www.w3.org/2000/svg">
<g fill="#FFF" fill-rule="evenodd">
<path d="M81.67 47.01c0 .373-.095.717-.285 1.03a2.01 2.01 0 01-.84.75c-.37.187-.818.28-1.345.28-.793 0-1.447-.193-1.96-.58-.513-.387-.793-.927-.84-1.62h1.82c.027.267.122.477.285.63.163.153.372.23.625.23.22 0 .393-.06.52-.18a.63.63 0 00.19-.48.62.62 0 00-.175-.45 1.372 1.372 0 00-.435-.295 9.957 9.957 0 00-.72-.275 8.84 8.84 0 01-1.095-.445 2.017 2.017 0 01-.73-.64c-.203-.283-.305-.652-.305-1.105 0-.42.107-.783.32-1.09.213-.307.508-.542.885-.705a3.228 3.228 0 011.295-.245c.787 0 1.412.187 1.875.56.463.373.725.887.785 1.54h-1.85a.949.949 0 00-.255-.555c-.137-.137-.322-.205-.555-.205-.2 0-.362.053-.485.16-.123.107-.185.263-.185.47 0 .167.055.308.165.425.11.117.248.212.415.285.167.073.407.167.72.28.453.153.823.305 1.11.455.287.15.533.368.74.655.207.287.31.66.31 1.12zm7.555-5.08v1.36h-1.92V49h-1.72v-5.71h-1.9v-1.36h5.54zm5.605-.11c.667 0 1.272.155 1.815.465.543.31.972.74 1.285 1.29.313.55.47 1.172.47 1.865 0 .693-.158 1.317-.475 1.87a3.414 3.414 0 01-1.29 1.295 3.578 3.578 0 01-1.805.465c-.66 0-1.262-.155-1.805-.465a3.414 3.414 0 01-1.29-1.295c-.317-.553-.475-1.177-.475-1.87 0-.693.158-1.315.475-1.865.317-.55.747-.98 1.29-1.29a3.578 3.578 0 011.805-.465zm0 1.59c-.56 0-1.005.182-1.335.545-.33.363-.495.858-.495 1.485 0 .62.165 1.113.495 1.48.33.367.775.55 1.335.55.553 0 .997-.183 1.33-.55.333-.367.5-.86.5-1.48s-.165-1.113-.495-1.48c-.33-.367-.775-.55-1.335-.55zm7.765 3.11V49h-1.71v-7.07h2.77c.84 0 1.48.208 1.92.625.44.417.66.978.66 1.685 0 .44-.098.832-.295 1.175a2.045 2.045 0 01-.875.81c-.387.197-.857.295-1.41.295h-1.06zm.87-1.37c.687 0 1.03-.303 1.03-.91 0-.62-.343-.93-1.03-.93h-.87v1.84h.87zm11.89-3.29c.9 0 1.645.237 2.235.71.59.473.972 1.113 1.145 1.92h-1.81a1.66 1.66 0 00-.615-.77 1.719 1.719 0 00-.985-.28c-.5 0-.903.183-1.21.55-.307.367-.46.857-.46 1.47s.153 1.102.46 1.465c.307.363.71.545 1.21.545.38 0 .708-.093.985-.28.277-.187.482-.44.615-.76h1.81c-.173.8-.555 1.438-1.145 1.915-.59.477-1.335.715-2.235.715-.687 0-1.29-.152-1.81-.455a3.088 3.088 0 01-1.205-1.275c-.283-.547-.425-1.17-.425-1.87 0-.7.142-1.323.425-1.87a3.088 3.088 0 011.205-1.275c.52-.303 1.123-.455 1.81-.455zm9.225-.04c.667 0 1.272.155 1.815.465.543.31.972.74 1.285 1.29.313.55.47 1.172.47 1.865 0 .693-.158 1.317-.475 1.87a3.414 3.414 0 01-1.29 1.295 3.578 3.578 0 01-1.805.465c-.66 0-1.262-.155-1.805-.465a3.414 3.414 0 01-1.29-1.295c-.317-.553-.475-1.177-.475-1.87 0-.693.158-1.315.475-1.865.317-.55.747-.98 1.29-1.29a3.578 3.578 0 011.805-.465zm0 1.59c-.56 0-1.005.182-1.335.545-.33.363-.495.858-.495 1.485 0 .62.165 1.113.495 1.48.33.367.775.55 1.335.55.553 0 .997-.183 1.33-.55.333-.367.5-.86.5-1.48s-.165-1.113-.495-1.48c-.33-.367-.775-.55-1.335-.55zm7.375-1.48l1.73 5.32 1.73-5.32h1.83l-2.46 7.07h-2.21l-2.45-7.07h1.83zm9.185 0V49h-1.71v-7.07h1.71zm9.065 3.52c0 .693-.148 1.308-.445 1.845a3.117 3.117 0 01-1.28 1.255c-.557.3-1.212.45-1.965.45h-2.67v-7.07h2.67c.76 0 1.417.147 1.97.44a3.07 3.07 0 011.275 1.24c.297.533.445 1.147.445 1.84zm-3.84 2.02c.667 0 1.185-.177 1.555-.53.37-.353.555-.85.555-1.49s-.185-1.137-.555-1.49c-.37-.353-.888-.53-1.555-.53h-.81v4.04h.81zm10.215-2.69v1.42h-4.41v-1.42h4.41zm2.595-1.25v-1.6h2.86V49h-1.8v-5.47h-1.06zm7.155 3.3c.093.58.387.87.88.87.387 0 .658-.177.815-.53.157-.353.228-.903.215-1.65a1.305 1.305 0 01-.585.645 1.925 1.925 0 01-.965.235c-.667 0-1.193-.202-1.58-.605-.387-.403-.58-.982-.58-1.735 0-.473.097-.893.29-1.26.193-.367.478-.652.855-.855.377-.203.828-.305 1.355-.305.713 0 1.27.15 1.67.45.4.3.677.708.83 1.225.153.517.23 1.138.23 1.865 0 1.28-.195 2.248-.585 2.905-.39.657-1.045.985-1.965.985-.507 0-.942-.102-1.305-.305a2.172 2.172 0 01-.84-.815 2.537 2.537 0 01-.335-1.12h1.6zm1.78-2.69c0-.307-.087-.555-.26-.745-.173-.19-.427-.285-.76-.285-.3 0-.535.083-.705.25-.17.167-.255.41-.255.73s.087.565.26.735c.173.17.41.255.71.255.287 0 .527-.082.72-.245.193-.163.29-.395.29-.695zM89.656 20.352c1.365.277 2.459.923 3.28 1.936.821 1.013 1.232 2.203 1.232 3.568 0 1.899-.635 3.397-1.904 4.496-1.27 1.099-3.11 1.648-5.52 1.648h-9.696V9.408h9.504c2.283 0 4.037.501 5.264 1.504 1.227 1.003 1.84 2.41 1.84 4.224 0 1.408-.368 2.56-1.104 3.456-.736.896-1.701 1.483-2.896 1.76zM81.56 18.88h4.064c1.13 0 1.99-.25 2.576-.752.587-.501.88-1.221.88-2.16 0-.939-.288-1.664-.864-2.176-.576-.512-1.461-.768-2.656-.768h-4v5.856zm4.288 9.44c1.195 0 2.112-.261 2.752-.784.64-.523.96-1.285.96-2.288s-.325-1.776-.976-2.32c-.65-.544-1.573-.816-2.768-.816H81.56v6.208h4.288zm15.997-20V32h-4.512V8.32h4.512zm11.037 5.728c1.493 0 2.773.352 3.84 1.056a5.751 5.751 0 012.272 2.848v-3.68h4.48V32h-4.48v-3.712a5.836 5.836 0 01-2.272 2.864c-1.067.715-2.347 1.072-3.84 1.072-1.493 0-2.837-.363-4.032-1.088-1.195-.725-2.128-1.776-2.8-3.152-.672-1.376-1.008-2.992-1.008-4.848 0-1.856.336-3.472 1.008-4.848.672-1.376 1.605-2.427 2.8-3.152 1.195-.725 2.539-1.088 4.032-1.088zm1.408 3.936c-1.408 0-2.539.459-3.392 1.376-.853.917-1.28 2.176-1.28 3.776 0 1.6.427 2.853 1.28 3.76.853.907 1.984 1.36 3.392 1.36 1.365 0 2.49-.464 3.376-1.392.885-.928 1.328-2.17 1.328-3.728 0-1.579-.443-2.832-1.328-3.76-.885-.928-2.01-1.392-3.376-1.392zm21.245-3.936c2.283 0 4.187.619 5.712 1.856 1.525 1.237 2.48 2.923 2.864 5.056h-4.768c-.192-.939-.63-1.68-1.312-2.224-.683-.544-1.547-.816-2.592-.816-1.195 0-2.192.443-2.992 1.328-.8.885-1.2 2.181-1.2 3.888 0 1.707.4 3.003 1.2 3.888.8.885 1.797 1.328 2.992 1.328 1.045 0 1.91-.272 2.592-.816.683-.544 1.12-1.285 1.312-2.224h4.768c-.384 2.133-1.339 3.819-2.864 5.056s-3.43 1.856-5.712 1.856c-1.728 0-3.264-.368-4.608-1.104a7.76 7.76 0 01-3.136-3.152c-.747-1.365-1.12-2.976-1.12-4.832 0-1.856.373-3.472 1.12-4.848.747-1.376 1.792-2.427 3.136-3.152 1.344-.725 2.88-1.088 4.608-1.088zm28.445 8.416c0 .448-.053.96-.16 1.536h-12.992c.064 1.579.49 2.741 1.28 3.488.79.747 1.77 1.12 2.944 1.12 1.045 0 1.915-.256 2.608-.768.693-.512 1.136-1.205 1.328-2.08h4.768a7.628 7.628 0 01-1.504 3.328c-.768.981-1.755 1.75-2.96 2.304-1.205.555-2.544.832-4.016.832-1.728 0-3.264-.368-4.608-1.104a7.76 7.76 0 01-3.136-3.152c-.747-1.365-1.12-2.976-1.12-4.832 0-1.856.373-3.472 1.12-4.848.747-1.376 1.792-2.427 3.136-3.152 1.344-.725 2.88-1.088 4.608-1.088 1.75 0 3.28.363 4.592 1.088 1.312.725 2.325 1.723 3.04 2.992.715 1.27 1.072 2.715 1.072 4.336zm-4.544-.448c.064-1.45-.315-2.55-1.136-3.296-.821-.747-1.83-1.12-3.024-1.12-1.216 0-2.24.373-3.072 1.12-.832.747-1.29 1.845-1.376 3.296h8.608z"/><path d="M28 45c-8.284 0-15-6.716-15-15 0-8.284 6.716-15 15-15 8.284 0 15 6.716 15 15 0 8.284-6.716 15-15 15zm0-4c6.075 0 11-4.925 11-11s-4.925-11-11-11-11 4.925-11 11 4.925 11 11 11zm0-31a5 5 0 110-10 5 5 0 010 10zm0-2a3 3 0 100-6 3 3 0 000 6zm25 27a5 5 0 110-10 5 5 0 010 10zm0-2a3 3 0 100-6 3 3 0 000 6zm-5-18a5 5 0 110-10 5 5 0 010 10zm0-2a3 3 0 100-6 3 3 0 000 6zM5 44a5 5 0 110-10 5 5 0 010 10zm0-2a3 3 0 100-6 3 3 0 000 6zm3-20a5 5 0 110-10 5 5 0 010 10zm0-2a3 3 0 100-6 3 3 0 000 6zm11 37a5 5 0 110-10 5 5 0 010 10zm0-2a3 3 0 100-6 3 3 0 000 6zm24.5-2a4.5 4.5 0 110-9 4.5 4.5 0 010 9zm0-2a2.5 2.5 0 100-5 2.5 2.5 0 000 5z" fill-rule="nonzero"/>
</g></svg>