<svg width="601" height="590" xmlns="http://www.w3.org/2000/svg"><path d="M293 468c-86.156 0-156-69.844-156-156s69.844-156 156-156 156 69.844 156 156-69.844 156-156 156zm0-41.6c63.181 0 114.4-51.219 114.4-114.4 0-63.181-51.219-114.4-114.4-114.4-63.181 0-114.4 51.219-114.4 114.4 0 63.181 51.219 114.4 114.4 114.4zM290.5 103c-28.443 0-51.5-23.057-51.5-51.5S262.057 0 290.5 0 342 23.057 342 51.5 318.943 103 290.5 103zm0-20.6c17.066 0 30.9-13.834 30.9-30.9s-13.834-30.9-30.9-30.9-30.9 13.834-30.9 30.9 13.834 30.9 30.9 30.9zm259 279.6c-28.443 0-51.5-23.057-51.5-51.5s23.057-51.5 51.5-51.5 51.5 23.057 51.5 51.5-23.057 51.5-51.5 51.5zm0-20.6c17.066 0 30.9-13.834 30.9-30.9s-13.834-30.9-30.9-30.9-30.9 13.834-30.9 30.9 13.834 30.9 30.9 30.9zm-53-185.4c-28.443 0-51.5-23.057-51.5-51.5S468.057 53 496.5 53 548 76.057 548 104.5 524.943 156 496.5 156zm0-20.6c17.066 0 30.9-13.834 30.9-30.9s-13.834-30.9-30.9-30.9-30.9 13.834-30.9 30.9 13.834 30.9 30.9 30.9zM51.5 453C23.057 453 0 429.943 0 401.5S23.057 350 51.5 350s51.5 23.057 51.5 51.5S79.943 453 51.5 453zm0-20.6c17.066 0 30.9-13.834 30.9-30.9s-13.834-30.9-30.9-30.9-30.9 13.834-30.9 30.9 13.834 30.9 30.9 30.9zm30-203.4C53.057 229 30 205.943 30 177.5S53.057 126 81.5 126s51.5 23.057 51.5 51.5S109.943 229 81.5 229zm0-20.6c17.066 0 30.9-13.834 30.9-30.9s-13.834-30.9-30.9-30.9-30.9 13.834-30.9 30.9 13.834 30.9 30.9 30.9zm114 381.6c-28.443 0-51.5-23.057-51.5-51.5s23.057-51.5 51.5-51.5 51.5 23.057 51.5 51.5-23.057 51.5-51.5 51.5zm0-20.6c17.066 0 30.9-13.834 30.9-30.9s-13.834-30.9-30.9-30.9-30.9 13.834-30.9 30.9 13.834 30.9 30.9 30.9zm253-21.4c-25.129 0-45.5-20.371-45.5-45.5s20.371-45.5 45.5-45.5 45.5 20.371 45.5 45.5-20.371 45.5-45.5 45.5zm0-20.222c13.96 0 25.278-11.317 25.278-25.278 0-13.96-11.317-25.278-25.278-25.278-13.96 0-25.278 11.317-25.278 25.278 0 13.96 11.317 25.278 25.278 25.278z" fill="#56657C" opacity=".04"/></svg>