<svg width="759" height="745" xmlns="http://www.w3.org/2000/svg"><path d="M370 591c-108.8 0-197-88.2-197-197s88.2-197 197-197 197 88.2 197 197-88.2 197-197 197zm0-52.533c79.787 0 144.467-64.68 144.467-144.467S449.787 249.533 370 249.533 225.533 314.213 225.533 394 290.213 538.467 370 538.467zM367 130c-35.899 0-65-29.101-65-65s29.101-65 65-65 65 29.101 65 65-29.101 65-65 65zm0-26c21.54 0 39-17.46 39-39s-17.46-39-39-39-39 17.46-39 39 17.46 39 39 39zm327 353c-35.899 0-65-29.101-65-65s29.101-65 65-65 65 29.101 65 65-29.101 65-65 65zm0-26c21.54 0 39-17.46 39-39s-17.46-39-39-39-39 17.46-39 39 17.46 39 39 39zm-67-234c-35.899 0-65-29.101-65-65s29.101-65 65-65 65 29.101 65 65-29.101 65-65 65zm0-26c21.54 0 39-17.46 39-39s-17.46-39-39-39-39 17.46-39 39 17.46 39 39 39zM65 572c-35.899 0-65-29.101-65-65s29.101-65 65-65 65 29.101 65 65-29.101 65-65 65zm0-26c21.54 0 39-17.46 39-39s-17.46-39-39-39-39 17.46-39 39 17.46 39 39 39zm38-257c-35.899 0-65-29.101-65-65s29.101-65 65-65 65 29.101 65 65-29.101 65-65 65zm0-26c21.54 0 39-17.46 39-39s-17.46-39-39-39-39 17.46-39 39 17.46 39 39 39zm144 482c-35.899 0-65-29.101-65-65s29.101-65 65-65 65 29.101 65 65-29.101 65-65 65zm0-26c21.54 0 39-17.46 39-39s-17.46-39-39-39-39 17.46-39 39 17.46 39 39 39zm319.5-27c-31.756 0-57.5-25.744-57.5-57.5s25.744-57.5 57.5-57.5 57.5 25.744 57.5 57.5-25.744 57.5-57.5 57.5zm0-25.556c17.642 0 31.944-14.302 31.944-31.944s-14.302-31.944-31.944-31.944-31.944 14.302-31.944 31.944 14.302 31.944 31.944 31.944z" fill="#56657C" opacity=".04"/></svg>